<svg xmlns="http://www.w3.org/2000/svg" xmlns:xlink="http://www.w3.org/1999/xlink" id="white_outlined" x="0" y="0" version="1.1" viewBox="0 0 500 145" xml:space="preserve" style="enable-background:new 0 0 500 145"><style type="text/css">.st0{fill:#343131}.st1{fill:#fff}.st2{font-family:&apos;ArialMT&apos;}.st3{font-size:36px}.st4{fill:#7986cb}.st5{fill:#c5cae9}</style><path d="M416.2,145.7h-329c-11,0-20-9.7-20-21.5v-102c0-11.8,9-21.5,20-21.5h329c11,0,20,9.7,20,21.5v102	C436.2,136,427.3,145.7,416.2,145.7z" class="st0"/><g><text class="st1 st2 st3" transform="matrix(1.0181 0 0 1 128.422 120.8716)">Documentation</text><g><g><polygon points="138.8 85.5 101.7 72.1 101.7 29.2 138.8 15.8" class="st4"/><polygon points="204.8 69.6 142.3 85.5 142.3 15.8 204.8 31.7" class="st4"/><path d="M124.2,55.5c-0.4,0-0.9,0-1.3,0.1l-4-15.9c1.6-1.1,2.8-3.2,2.8-5.6c0-3.1-2.1-5.1-4.5-4.4 c-2.3,0.6-4,3.4-4,6.2c0,1.5,0.5,2.9,1.4,3.7l-6.8,13.7c-0.3-0.2-0.6-0.3-0.9-0.3c-1.2-0.1-2.2,1.4-2.2,3.2s1,3.4,2.2,3.6 c0.9,0.1,1.7-0.5,2.1-1.5l8,3.7c-0.1,0.5-0.1,1.1-0.1,1.7c0,4.7,3.1,9.3,7.3,10.6c4.7,1.4,8.9-2,8.9-7.7 C133.1,60.7,128.9,55.8,124.2,55.5z M109.3,57c0-0.2,0-0.3,0-0.5c0-0.9-0.2-1.7-0.6-2.4l6.9-14c0.5,0.2,1,0.3,1.6,0.2 c0.2,0,0.4-0.1,0.6-0.1l4,15.7c-2.1,0.7-3.8,2.5-4.5,4.9L109.3,57z" class="st1"/><path d="M155.3,72.4c-0.6,0-1.1-0.5-1.1-1.1v-43c0-0.6,0.5-1.1,1.1-1.1s1.1,0.5,1.1,1.1v43.1 C156.4,72,155.9,72.4,155.3,72.4z" class="st5"/><path d="M164.7,70.8c-0.6,0-1.1-0.5-1.1-1.1V29.9c0-0.6,0.5-1.1,1.1-1.1s1.1,0.5,1.1,1.1v39.8 C165.8,70.3,165.3,70.8,164.7,70.8z" class="st5"/><path d="M172.8,69.4c-0.6,0-1.1-0.5-1.1-1.1v-37c0-0.6,0.5-1.1,1.1-1.1s1.1,0.5,1.1,1.1v37 C173.8,69,173.4,69.4,172.8,69.4z" class="st5"/><path d="M179.8,68.3c-0.6,0-1.1-0.5-1.1-1.1V32.7c0-0.6,0.5-1.1,1.1-1.1s1.1,0.5,1.1,1.1v34.6 C180.8,67.8,180.4,68.3,179.8,68.3z" class="st5"/><path d="M185.9,67.3c-0.6,0-1.1-0.5-1.1-1.1V33.8c0-0.6,0.5-1.1,1.1-1.1s1.1,0.5,1.1,1.1v32.5 C187,66.8,186.5,67.3,185.9,67.3z" class="st5"/><path d="M191.3,66.4c-0.6,0-1.1-0.5-1.1-1.1V34.7c0-0.6,0.5-1.1,1.1-1.1s1.1,0.5,1.1,1.1v30.6 C192.4,65.9,191.9,66.4,191.3,66.4z" class="st5"/><path d="M196.2,65.6c-0.6,0-1.1-0.5-1.1-1.1V35.6c0-0.6,0.5-1.1,1.1-1.1s1.1,0.5,1.1,1.1v28.9 C197.2,65.1,196.8,65.6,196.2,65.6z" class="st5"/><path d="M200.5,64.8c-0.6,0-1.1-0.5-1.1-1.1V36.4c0-0.6,0.5-1.1,1.1-1.1s1.1,0.5,1.1,1.1v27.4 C201.6,64.4,201.1,64.8,200.5,64.8z" class="st5"/></g><g><path d="M214.7,38.1h10.1c8.1,0,13.8,5.5,13.8,12.7v0.1c0,7.2-5.6,12.7-13.8,12.7h-10.1V38.1z M224.8,58.5 c4.7,0,7.8-3.1,7.8-7.6v-0.1c0-4.5-3.1-7.7-7.8-7.7h-4.4v15.3L224.8,58.5L224.8,58.5z" class="st1"/><path d="M242.1,53.9L242.1,53.9c0-5.7,4.6-10.2,10.8-10.2c6.1,0,10.7,4.5,10.7,10.1v0.1c0,5.6-4.6,10.1-10.8,10.1 C246.6,64,242.1,59.5,242.1,53.9z M258,53.9L258,53.9c0-2.9-2.1-5.5-5.2-5.5c-3.2,0-5.1,2.4-5.1,5.3v0.1c0,2.9,2.1,5.4,5.2,5.4 C256.1,59.2,258,56.8,258,53.9z" class="st1"/><path d="M266.7,53.9L266.7,53.9c0-5.6,4.3-10.2,10.4-10.2c3.7,0,6.1,1.2,7.9,3.3l-3.4,3.6c-1.3-1.3-2.5-2.1-4.5-2.1 c-2.8,0-4.8,2.4-4.8,5.3v0.1c0,3,2,5.4,5,5.4c1.9,0,3.2-0.8,4.6-2.1l3.3,3.3c-1.9,2.1-4.1,3.6-8.1,3.6 C271,64,266.7,59.4,266.7,53.9z" class="st1"/><path d="M288.8,37h5.6v14.1L301,44h6.7l-7.6,7.7l7.8,11.8h-6.4l-5.2-8l-2,2v5.9h-5.6V37H288.8z" class="st1"/><path d="M309.1,60.9l2.4-3.6c2.1,1.5,4.4,2.3,6.3,2.3c1.6,0,2.4-0.6,2.4-1.5V58c0-1.2-1.9-1.6-4.1-2.3 c-2.8-0.8-5.9-2.1-5.9-5.9v-0.1c0-4,3.3-6.2,7.3-6.2c2.5,0,5.3,0.8,7.4,2.3l-2.1,3.8c-2-1.1-3.9-1.8-5.4-1.8 c-1.4,0-2.1,0.6-2.1,1.3v0.1c0,1.1,1.9,1.6,4,2.3c2.8,0.9,6,2.2,6,5.8v0.1c0,4.3-3.3,6.3-7.6,6.3C314.9,63.9,311.8,63,309.1,60.9 z" class="st1"/><path d="M329.8,58v-9.2h-2.4v-4.7h2.4v-5h5.6v5h4.7v4.7h-4.7v8.3c0,1.3,0.6,1.9,1.8,1.9c1,0,2-0.3,2.8-0.7v4.4 c-1.2,0.7-2.6,1.1-4.4,1.1C332.2,63.8,329.8,62.5,329.8,58z" class="st1"/><path d="M342.7,53.9L342.7,53.9c0-5.7,4.6-10.2,10.8-10.2c6.1,0,10.7,4.5,10.7,10.1v0.1c0,5.6-4.6,10.1-10.8,10.1 C347.3,64,342.7,59.5,342.7,53.9z M358.7,53.9L358.7,53.9c0-2.9-2.1-5.5-5.2-5.5c-3.2,0-5.1,2.4-5.1,5.3v0.1 c0,2.9,2.1,5.4,5.2,5.4C356.7,59.2,358.7,56.8,358.7,53.9z" class="st1"/><path d="M368.3,44h5.6v3.9c1.1-2.7,3-4.4,6.3-4.3v5.8h-0.3c-3.7,0-6,2.2-6,6.9v7.2h-5.6V44z" class="st1"/><path d="M382.2,53.9L382.2,53.9c0-5.6,4-10.2,9.8-10.2c6.6,0,9.7,5.1,9.7,10.6c0,0.4,0,0.9-0.1,1.5h-13.8 c0.6,2.5,2.3,3.8,4.8,3.8c1.9,0,3.3-0.6,4.8-2l3.2,2.8c-1.9,2.3-4.5,3.6-8.1,3.6C386.6,64,382.2,59.8,382.2,53.9z M396.2,52.2 c-0.3-2.5-1.8-4.1-4.2-4.1c-2.3,0-3.8,1.6-4.3,4.1H396.2z" class="st1"/></g></g></g></svg>